<?xml version="1.0" encoding="utf-8"?>
<!-- Generator: Adobe Illustrator 23.0.3, SVG Export Plug-In . SVG Version: 6.00 Build 0)  -->
<svg version="1.1" id="Layer_1" xmlns="http://www.w3.org/2000/svg" xmlns:xlink="http://www.w3.org/1999/xlink" x="0px" y="0px"
	 viewBox="0 0 512 512" style="enable-background:new 0 0 512 512;" xml:space="preserve">
<style type="text/css">
	.st0{fill:#5EAAA8;}
</style>
<g id="Page-1">
	<g>
		<path id="Shape" class="st0" d="M452.3,196.3c4.7,0,8.5-3.8,8.5-8.5V25.6c0-14.1-11.5-25.6-25.6-25.6H25.6C11.5,0,0,11.5,0,25.6
			v341.3c0,14.1,11.5,25.6,25.6,25.6h153.6c4.7,0,8.5-3.8,8.5-8.5s-3.8-8.5-8.5-8.5H25.6c-4.7,0-8.5-3.8-8.5-8.5V85.3h426.7v102.4
			C443.7,192.4,447.6,196.3,452.3,196.3z M17.1,68.3V25.6c0-4.7,3.8-8.5,8.5-8.5h409.6c4.7,0,8.5,3.8,8.5,8.5v42.7H17.1z"/>
		<circle id="Oval" class="st0" cx="42.7" cy="42.7" r="8.5"/>
		<circle class="st0" cx="76.8" cy="42.7" r="8.5"/>
		<circle class="st0" cx="110.9" cy="42.7" r="8.5"/>
		<path class="st0" d="M264.5,34.1h-59.7c-4.7,0-8.5,3.8-8.5,8.5s3.8,8.5,8.5,8.5h59.7c4.7,0,8.5-3.8,8.5-8.5S269.2,34.1,264.5,34.1
			z"/>
		<path class="st0" d="M42.7,128h17.1c4.7,0,8.5-3.8,8.5-8.5c0-4.7-3.8-8.5-8.5-8.5H42.7c-4.7,0-8.5,3.8-8.5,8.5
			C34.1,124.2,38,128,42.7,128z"/>
		<path class="st0" d="M170.7,110.9H93.9c-4.7,0-8.5,3.8-8.5,8.5c0,4.7,3.8,8.5,8.5,8.5h76.8c4.7,0,8.5-3.8,8.5-8.5
			C179.2,114.8,175.4,110.9,170.7,110.9z"/>
		<path class="st0" d="M281.6,119.5c0-4.7-3.8-8.5-8.5-8.5h-68.3c-4.7,0-8.5,3.8-8.5,8.5c0,4.7,3.8,8.5,8.5,8.5h68.3
			C277.8,128,281.6,124.2,281.6,119.5z"/>
		<path class="st0" d="M162.1,162.1c4.7,0,8.5-3.8,8.5-8.5s-3.8-8.5-8.5-8.5h-17.1c-4.7,0-8.5,3.8-8.5,8.5s3.8,8.5,8.5,8.5H162.1z"
			/>
		<path class="st0" d="M196.3,145.1c-4.7,0-8.5,3.8-8.5,8.5s3.8,8.5,8.5,8.5h17.1c4.7,0,8.5-3.8,8.5-8.5s-3.8-8.5-8.5-8.5H196.3z"/>
		<path class="st0" d="M42.7,162.1h68.3c4.7,0,8.5-3.8,8.5-8.5s-3.8-8.5-8.5-8.5H42.7c-4.7,0-8.5,3.8-8.5,8.5S38,162.1,42.7,162.1z"
			/>
		<path class="st0" d="M34.1,247.5c0,9.4,7.6,17.1,17.1,17.1h110.9c9.4,0,17.1-7.6,17.1-17.1v-25.6c0-9.4-7.6-17.1-17.1-17.1H51.2
			c-9.4,0-17.1,7.6-17.1,17.1V247.5z M51.2,221.9h110.9v25.6H51.2V221.9z"/>
		<path class="st0" d="M375.1,280.5l30.2-30.9c3.9-4,5.2-9.8,3.4-15.1c-1.7-5.2-6.2-9-11.6-9.8l-41.4-6.3L337.3,179
			c-2.4-5.1-7.5-8.4-13.1-8.4s-10.7,3.3-13.1,8.4l-18.5,39.4l-41.4,6.3c-5.4,0.8-9.9,4.6-11.6,9.8c-1.8,5.3-0.5,11.1,3.4,15.1
			l30.2,30.9l-7.2,43.7c-1,5.6,1.4,11.2,6,14.5c4.5,3.2,10.4,3.5,15.2,0.9l36.8-20.3l36.8,20.3c4.8,2.7,10.7,2.3,15.2-0.9
			c4.6-3.3,7-8.9,6-14.5L375.1,280.5z M358.1,282.2l6.5,39.8l-33.4-18.4c-4.3-2.4-9.5-2.4-13.9,0L283.9,322l6.5-39.8
			c0.8-4.7-0.7-9.4-4-12.8l-27.9-28.5l38.1-5.8c4.8-0.7,8.9-3.8,10.9-8.2l16.7-35.5l16.7,35.5c2,4.4,6.1,7.5,10.9,8.2l38.2,5.8
			l-27.9,28.6C358.8,272.8,357.4,277.6,358.1,282.2L358.1,282.2z"/>
		<path class="st0" d="M507.2,444.6c-76.3-36.8-76.9-98.1-76.4-109.2c35.6-53.4,26.1-124.9-22.2-167.3s-120.4-42.3-168.7,0
			S182.1,282,217.7,335.4c0.4,10.8-0.6,72.7-76.4,109.2c-3,1.5-4.9,4.6-4.8,7.9c0.1,3.4,2.1,6.3,5.2,7.6c1.5,0.6,32.1,13.3,58.4,6
			c1.1,16.4,8.1,31.7,19.8,43.3l0.2,0.2c2.5,2.5,6.3,3.2,9.5,1.7c3.2-1.5,5.2-4.8,5-8.3c3.3-14.2,10.7-27.1,21.2-37.2
			c3.7-3.2,7.6-6.2,11.5-9.2c10.7-7.5,20.3-16.6,28.3-26.9c7.9-11.4,13.6-24.2,16.8-37.7c3.9,0.4,7.8,0.6,11.8,0.6s7.9-0.2,11.8-0.6
			c3.2,13.5,8.8,26.3,16.7,37.6c8,10.3,17.6,19.4,28.4,26.9c3.9,3,7.8,6,11.5,9.2c10.5,10.1,17.9,23,21.2,37.2
			c-0.2,3.5,1.8,6.9,5,8.3s7.1,0.8,9.6-1.8l0.1-0.2c11.6-11.5,18.7-26.9,19.8-43.3c26.3,7.3,56.9-5.3,58.4-6
			c3.1-1.3,5.1-4.3,5.2-7.6C512.1,449.1,510.2,446,507.2,444.6L507.2,444.6z M281.8,419.7c-7.1,9-15.5,16.8-24.9,23.4
			c-4.1,3.2-8.2,6.4-12.2,9.8c-9.6,8.7-17.2,19.6-22,31.7c-5.2-9-6.8-19.5-4.7-29.6c1.1-3.5-0.1-7.3-3.1-9.4
			c-2.9-2.2-6.9-2.2-9.9-0.1c-11.5,6.3-25.1,8-37.8,4.5c48.7-30.2,62.5-70.3,66.3-95.1c17,17.1,38.5,29.1,62.1,34.5
			C292.9,400.1,288.2,410.4,281.8,419.7L281.8,419.7z M213.3,264.5c0-61.3,49.7-110.9,110.9-110.9s110.9,49.7,110.9,110.9
			s-49.7,110.9-110.9,110.9C263,375.4,213.4,325.8,213.3,264.5L213.3,264.5z M416.2,497.6L416.2,497.6L416.2,497.6L416.2,497.6z
			 M443.5,445.3c-3-2.1-7-2.1-9.9,0.1s-4.2,6-3.1,9.5c2.2,10.1,0.5,20.7-4.7,29.6c-4.8-12.1-12.3-23-22-31.7
			c-4-3.4-8.1-6.6-12.2-9.8c-9.4-6.5-17.8-14.4-24.9-23.4c-6.4-9.2-11.1-19.6-13.8-30.5c23.5-5.4,45-17.3,62.1-34.5
			c3.7,24.8,17.6,64.9,66.3,95.1C468.6,453.3,455,451.6,443.5,445.3L443.5,445.3z"/>
	</g>
</g>
</svg>
