<?xml version="1.0" encoding="utf-8"?>
<!-- Generator: Adobe Illustrator 23.0.3, SVG Export Plug-In . SVG Version: 6.00 Build 0)  -->
<svg version="1.1" id="Capa_1" xmlns="http://www.w3.org/2000/svg" xmlns:xlink="http://www.w3.org/1999/xlink" x="0px" y="0px"
	 viewBox="0 0 512 512" style="enable-background:new 0 0 512 512;" xml:space="preserve">
<style type="text/css">
	.st0{fill:#5EAAA8;}
</style>
<g>
	<path class="st0" d="M403.8,334.5l-30-8.8L308.4,283v-9.8c18.9-14.3,31.9-36.1,34.3-61.1c9.5-1.5,16.8-9.8,16.8-19.7v-26.9
		c0-0.1,0-0.2,0-0.3v-34.1c3.8-2.7,6.2-7.1,6.2-12.1V87.8l45.1-7.7c7.4-1.3,12.7-7.2,13.3-14.7c0.5-7.5-3.9-14.1-11.1-16.4
		L260.8,0.8c-3.2-1-6.5-1-9.7,0L99,49.1c-7.2,2.3-11.6,8.9-11.1,16.4c0.3,4.8,2.6,8.9,6.1,11.6v40.8h-0.4c-8.6,0-15.5,7-15.5,15.5
		v20.2l-10,58.9c-1.7,10.2,6.1,19.5,16.5,19.5h33.9c10.3,0,18.2-9.3,16.5-19.5l-10-58.9v-20.2c0-8.6-7-15.5-15.5-15.5h-0.4V81.5
		l37.3,6.4V119c0,4.9,2.4,9.3,6.2,12v34.4v26.9c0,9.9,7.3,18.2,16.8,19.7c2.4,25,15.4,46.8,34.3,61.1v9.8l-65.4,42.7l-30,8.8
		c-32.1,9.4-54.8,38.9-54.8,73.2V430c0,4.1,3.4,7.5,7.5,7.5s7.5-3.4,7.5-7.5v-22.4c0-27,18.1-51.2,44-58.8l28-8.2L252.3,407
		c2.3,1.3,5.3,1.4,7.7,0l111.8-66.4l28,8.2c25.9,7.6,44,31.8,44,58.8V480c0,9.3-7.6,16.9-16.9,16.9h-33.1v-32.3
		c0-4.1-3.4-7.5-7.5-7.5s-7.5,3.4-7.5,7.5V497H133.3v-32.3c0-4.1-3.4-7.5-7.5-7.5s-7.5,3.4-7.5,7.5V497h-33
		c-9.3,0-16.8-7.6-16.8-16.9v-15c0-4.1-3.4-7.5-7.5-7.5s-7.5,3.4-7.5,7.5v15c0,17.6,14.3,31.8,31.8,31.8h341.5
		c17.6,0,31.8-14.3,31.8-31.8v-72.4C458.6,374.2,436.7,344.2,403.8,334.5L403.8,334.5z M118.5,217H84.6c-1,0-1.8-0.9-1.7-2l9.1-53.2
		h19.2l9.1,53.2C120.4,216,119.6,217,118.5,217z M110,133.4v13.4H93.1v-13.4c0-0.3,0.2-0.5,0.5-0.5h15.7
		C109.7,132.8,110,133.1,110,133.4z M229.2,373.2l3,4.6l-76.6-45.5l48.6-31.7C206.4,326.4,214.9,351.3,229.2,373.2z M229.1,340.8
		c17.7,2.5,36.1,2.5,53.7,0c-3.4,8.4-7.6,16.5-12.6,24.2L256,386.9L241.7,365C236.7,357.3,232.5,349.2,229.1,340.8L229.1,340.8z
		 M282.8,373.2c14.3-21.9,22.8-46.8,25-72.7l48.6,31.7l-76.6,45.5L282.8,373.2z M326.7,133.9h17.8V158h-8.8c-4.9,0-9-4-9-9V133.9
		L326.7,133.9z M103.6,63.4L255.7,15c0.2-0.1,0.4-0.1,0.6,0l152.1,48.4c0.3,0.1,0.7,0.2,0.7,1c-0.1,0.8-0.5,0.9-0.8,0.9L358,73.9
		l-18.9-2.3c-4.1-0.5-7.9,2.4-8.4,6.5s2.4,7.9,6.5,8.4l13.4,1.7v30.7H161.3V88.1l77.6-9.6c11.3-1.4,22.8-1.4,34.1,0l29.4,3.6
		c4.1,0.5,7.9-2.4,8.4-6.5s-2.4-7.9-6.5-8.4l-29.4-3.6c-12.5-1.5-25.2-1.5-37.7,0L154,73.9l-50.3-8.6c-0.3-0.1-0.8-0.1-0.8-0.9
		C102.8,63.7,103.3,63.5,103.6,63.4L103.6,63.4z M167.5,158v-24.1h17.8V149c0,4.9-4,9-9,9H167.5L167.5,158z M184,208.2
		c-0.4-6.1-5.5-10.9-11.6-10.9c-2.7,0-4.9-2.2-4.9-4.9V173h8.8c13.2,0,24-10.7,24-24v-15.1h111.4V149c0,13.2,10.7,24,24,24h8.8v19.4
		c0,2.7-2.2,4.9-4.9,4.9c-6.1,0-11.2,4.8-11.6,10.9c-2.4,37.9-34,67.5-72,67.5S186.4,246.1,184,208.2L184,208.2z M256,290.8
		c13.3,0,26-3,37.4-8.5v4.8c0,12.8-1.7,25.5-5.1,37.7c-20.4,3.9-43.4,4-64.6,0c-3.3-12.2-5.1-24.8-5.1-37.7c0-0.2,0-0.3,0-0.5v-0.1
		v-4.2C230,287.7,242.6,290.8,256,290.8L256,290.8z"/>
</g>
</svg>
