<?xml version="1.0" encoding="utf-8"?>
<!-- Generator: Adobe Illustrator 23.0.3, SVG Export Plug-In . SVG Version: 6.00 Build 0)  -->
<svg version="1.1" id="Layer_1" xmlns="http://www.w3.org/2000/svg" xmlns:xlink="http://www.w3.org/1999/xlink" x="0px" y="0px"
	 viewBox="0 0 512 512" style="enable-background:new 0 0 512 512;" xml:space="preserve">
<style type="text/css">
	.st0{fill:#42495B;}
</style>
<g>
	<path class="st0" d="M363.2,368.6H148.8c-4.1,0-7.5,3.4-7.5,7.5s3.4,7.5,7.5,7.5h214.4c4.1,0,7.5-3.4,7.5-7.5
		S367.4,368.6,363.2,368.6z"/>
	<path class="st0" d="M370.7,408.6c0-4.1-3.4-7.5-7.5-7.5H148.8c-4.1,0-7.5,3.4-7.5,7.5s3.4,7.5,7.5,7.5h214.4
		C367.4,416.1,370.7,412.7,370.7,408.6z"/>
	<path class="st0" d="M180.2,433.6c-4.1,0-7.5,3.4-7.5,7.5s3.4,7.5,7.5,7.5h151.7c4.1,0,7.5-3.4,7.5-7.5s-3.4-7.5-7.5-7.5H180.2z"/>
	<path class="st0" d="M371.3,179.5l45.1-16.4c4.1-1.5,6.7-5.3,6.7-9.6s-2.6-8.1-6.7-9.6L267.8,89.6c-7.6-2.8-15.9-2.8-23.5,0
		L95.6,143.8c-4.1,1.5-6.7,5.3-6.7,9.6s2.6,8.1,6.7,9.6l45.1,16.4v88.6c0,5.8,2.6,11.4,6.5,15.1c3.9,3.7,8.3,7.2,13,10.4
		c0,0,0,0,0,0c-5,5-7.9,11.8-7.9,18.8v5c0,2.2,0.7,4.3,1.9,6.1l-7.3,16.8c-1.6,3.8,0.1,8.2,3.9,9.9c3.8,1.6,8.2-0.1,9.9-3.9
		l6.9-15.8c1,0.3,2,0.6,3,0.8v16.9c0,4.1,3.4,7.5,7.5,7.5s7.5-3.4,7.5-7.5v-16.9c1-0.2,2-0.5,3-0.8l6.9,15.8
		c1.7,3.8,6.1,5.5,9.9,3.9c3.8-1.6,5.5-6.1,3.9-9.9l-7.3-16.8c1.2-1.8,1.9-3.9,1.9-6.1v-3.9c16.4,4.7,34.3,7.1,52.3,7.1
		c38.3,0,81.2-11.6,108.8-37.6c4-3.7,6.5-9.3,6.5-15.1C371.3,258.1,371.3,189.6,371.3,179.5L371.3,179.5z M249.4,103.7
		c4.3-1.6,9-1.6,13.2,0l136.3,49.7c-2.5,0.9-134,48.9-136.3,49.7c-4.3,1.6-9,1.6-13.2,0L197,184l43.3-21.4l3.9,1.4
		c3.8,1.4,7.8,2.1,11.8,2.1s8-0.7,11.8-2.1l6.9-2.5c4.2-1.5,7.1-5.6,7.1-10.1v-5.5c0-13.9-11.3-25.5-25.2-25.7
		c-6.8-0.1-13.3,2.5-18.3,7.4c-5,5-7.9,11.8-7.9,18.8v4.5c-54.7,27-51.2,25.2-52.6,26.1l-64.6-23.6L249.4,103.7z M245.3,148.5v-2.1
		c0-3,1.3-6,3.4-8.1c2.1-2,4.7-3.1,7.5-3.1c5.8,0.1,10.5,4.9,10.5,10.7v2.5l-4.1,1.5c-4.3,1.6-9,1.6-13.2,0L245.3,148.5z
		 M170.5,246.9c-4.7-3.1-9.1-6.5-12.9-10.2c-1.2-1.1-1.8-2.6-1.8-4.2v-47.5l14.8,5.4C170.5,191.3,170.5,183.8,170.5,246.9z
		 M167.2,314.6c0-2.1-0.4-6.4,3.4-10.2c2.2-2.2,4.9-3.1,7.5-3.1c7.7,0.1,10.5,5.6,10.5,13.3C179.7,317.8,178.1,318.5,167.2,314.6
		L167.2,314.6z M170.5,282.5c-4.3-2.8-8.2-5.9-11.8-9.1c-1.1-1-3-2.4-3-5.3v-13.3c4.6,3.5,9.5,6.7,14.8,9.6V282.5z M198.2,296.2
		c-3.2-4.1-7.6-7.2-12.8-8.8v-15.8c15.8,6.6,33.6,11,52.4,12.7c4.1,0.4,7.8-2.7,8.1-6.8c0.4-4.1-2.7-7.8-6.8-8.1
		c-19.6-1.8-38-6.7-53.7-14.1v-59.5l58.8,21.5c3.7,1.4,7.7,2.1,11.8,2.1c4.1,0,8.2-0.8,11.8-2.1h0l88.5-32.3v47.5
		c0,1.6-0.7,3.1-1.8,4.2c-18.9,17.8-48.6,29.7-81.7,32.7c-4.1,0.4-7.2,4-6.8,8.1c0.4,4.1,4,7.2,8.1,6.8
		c31.8-2.9,61.1-13.5,82.1-29.6v13.3c0,1.6-0.7,3.2-1.8,4.2c-24.9,23.5-64.1,33.5-98.5,33.5C235.8,305.8,215.8,302.5,198.2,296.2
		L198.2,296.2z"/>
	<path class="st0" d="M89.5,512h333.1c16.5,0,29.9-13.4,29.9-29.9V277.5c0-4.1-3.4-7.5-7.5-7.5s-7.5,3.4-7.5,7.5v204.6
		c0,8.2-6.7,14.9-14.9,14.9H89.5c-8.2,0-14.9-6.7-14.9-14.9V61.3h362.9v181.2c0,4.1,3.4,7.5,7.5,7.5s7.5-3.4,7.5-7.5
		c0-7.2,0-202.4,0-212.6C452.5,13.4,439,0,422.5,0c-9,0-330.1,0-333.1,0C73,0,59.5,13.4,59.5,29.9v452.2C59.5,498.6,73,512,89.5,512
		L89.5,512z M437.5,29.9v16.4h-303V15h288.1C430.8,15,437.5,21.7,437.5,29.9z M74.5,29.9c0-6.7,4.4-12.4,10.5-14.3
		c1.4-0.4,2.9-0.7,4.4-0.7h30v31.3H74.5L74.5,29.9z"/>
</g>
</svg>
