<?xml version="1.0" encoding="utf-8"?>
<!-- Generator: Adobe Illustrator 23.0.3, SVG Export Plug-In . SVG Version: 6.00 Build 0)  -->
<svg version="1.1" id="Layer_1" xmlns="http://www.w3.org/2000/svg" xmlns:xlink="http://www.w3.org/1999/xlink" x="0px" y="0px"
	 viewBox="0 0 512 512" style="enable-background:new 0 0 512 512;" xml:space="preserve">
<style type="text/css">
	.st0{fill:#42495B;}
</style>
<g>
	<path class="st0" d="M123.2,328.6H44.1v63.1h79.2V328.6z M59.1,343.7h17v33.1h-17V343.7z M108.2,376.7h-17v-33.1h17V376.7z"/>
	<path class="st0" d="M44.1,471.9h79.2v-63.1H44.1V471.9z M108.2,456.9h-17v-33.1h17V456.9z M59.1,423.8h17v33.1h-17V423.8z"/>
	<path class="st0" d="M467.9,328.6h-79.2v63.1h79.2V328.6z M403.8,343.7h17v33.1h-17V343.7z M452.9,376.7h-17v-33.1h17V376.7z"/>
	<path class="st0" d="M388.8,471.9h79.2v-63.1h-79.2V471.9z M452.9,456.9h-17v-33.1h17V456.9z M403.8,423.8h17v33.1h-17V423.8z"/>
	<path class="st0" d="M376.2,296.6v15H497V489H359.7V368.2h-15V489h-33.1v-65.1h16v-47.1H184.4v47.1h16V489H15v-96.7H0V504h512
		V296.6H376.2z M296.6,489h-33.1v-65.1h33.1V489z M199.4,391.8h113.2v17H199.4V391.8z M215.4,423.8h33.1V489h-33.1V423.8z"/>
	<path class="st0" d="M15,311.6h137.3v160.8h15V251.1l88.7-88.7l88.7,88.7v101.1h15v-86.1l16.5,16.5l34.7-34.7L263.5,100.6V71.1
		h64.1V8h-79.2v92.6L101.1,248l34.7,34.7l16.5-16.5v30.5H0v79.7h15V311.6z M263.5,23h49.1v33.1h-49.1V23z M122.3,248L256,114.3
		L389.7,248l-13.4,13.4L256,141.2L135.8,261.4L122.3,248z"/>
	<path class="st0" d="M215.9,328.6h16v15h-16V328.6z"/>
	<path class="st0" d="M248,328.6h16v15h-16V328.6z"/>
	<path class="st0" d="M280,328.6h16v15h-16V328.6z"/>
	<path class="st0" d="M295.6,256c0-21.8-17.8-39.6-39.6-39.6s-39.6,17.8-39.6,39.6c0,21.8,17.8,39.6,39.6,39.6
		S295.6,277.8,295.6,256z M256,280.5c-13.5,0-24.5-11-24.5-24.5c0-13.5,11-24.5,24.5-24.5c13.5,0,24.5,11,24.5,24.5
		C280.5,269.5,269.5,280.5,256,280.5z"/>
</g>
</svg>
