<?xml version="1.0" encoding="utf-8"?>
<!-- Generator: Adobe Illustrator 23.0.3, SVG Export Plug-In . SVG Version: 6.00 Build 0)  -->
<svg version="1.1" id="Capa_1" xmlns="http://www.w3.org/2000/svg" xmlns:xlink="http://www.w3.org/1999/xlink" x="0px" y="0px"
	 viewBox="0 0 512 512" style="enable-background:new 0 0 512 512;" xml:space="preserve">
<style type="text/css">
	.st0{fill:#5EAAA8;}
</style>
<g>
	<path class="st0" d="M40.4,512h428.2c13,0,23.6-10.7,23.6-23.8v-12.1c0-6.1-4.9-11-11-11h-9.4c1.9-3.8,2.9-8,2.9-12.4V296.3
		c0-15.6-12.7-28.3-28.3-28.3h-97.1c-4.1,0-7.5,3.4-7.5,7.5s3.4,7.5,7.5,7.5h97.1c7.3,0,13.3,6,13.3,13.3v156.5
		c0,5.5-3.5,10.5-8.6,12.4H221.8c-5.3-2-8.6-7.1-8.6-12.4c0-15.3,0-141.3,0-156.5c0-7.3,6-13.3,13.3-13.3h88c4.1,0,7.5-3.4,7.5-7.5
		s-3.4-7.5-7.5-7.5h-55.2l0-19.3c17.2-12.6,29.1-31.9,31.7-54.1c19.5-1.7,34-17.3,34-35.4c0-12.4-6.3-23.9-16.1-30.6
		c1-2.5,1.6-5.2,1.6-8.1v-14.7c0-4.1-3.4-7.5-7.5-7.5s-7.5,3.4-7.5,7.5v14.7c0,3.3-2.6,6.2-6.4,6.1c-10.3-0.2-18.2-8.7-18.2-18.4
		c0-4.1-2.8-7.6-6.7-8.6c-4-1-8.1,0.9-9.9,4.4c-7.5,14-21.9,22.6-37.7,22.6h-85.9c-7.2,0-13.7-5.8-13.7-13.7V57.8
		c0-23.6,19.2-42.8,42.8-42.8h75.7c17.6,0,20.5,7.8,22.2,16.4c2,10.2,11.6,17.3,22.3,16.5c7.5-0.6,15.5,5.9,15.5,15v7.9
		c0,4.1,3.4,7.5,7.5,7.5s7.5-3.4,7.5-7.5v-7.9c0-18.1-15.7-31.2-31.7-30c-3.2,0.3-5.9-1.6-6.4-4.4C268.6,9.3,256.5,0,235.4,0h-75.7
		C127.9,0,102,25.9,102,57.8V113c0,7.9,3.2,15,8.3,20.2c-7.3,6.8-11.7,16.4-11.7,26.2c0,18.1,14.5,33.6,34,35.3
		c2.6,21.8,14.1,41.2,31.7,54V268c-20,7.8-80.4,31.4-100.7,39.3c0,0-0.1,0-0.1,0c-21,8.7-43.7,33.5-43.7,67.5v116.7
		C19.8,502.8,29,512,40.4,512L40.4,512z M291.5,141.5c2.3-0.2,4.7-0.9,6.7-1.8c7,3.6,11.8,11.3,11.8,19.5c0,10.3-8.2,18.5-18.5,20.2
		V141.5z M132.1,179.4c-10.3-1.7-18.5-9.9-18.5-20.1c0-7.2,4.4-14.4,11-18.3c3.2,0.7,5.5,0.6,7.4,0.6V179.4z M477.2,480.2v8.1
		c0,4.8-3.9,8.8-8.6,8.8H204.4c-4.7,0-8.6-3.9-8.6-8.8v-8.1H477.2z M226.5,268c-13.2,0-24.3,9.1-27.4,21.3l-19.8-19.8
		c0.1-1.2,0.1,1,0.1-12.3c10.8,4.7,22.1,6.7,33.5,6.7c11.1,0,21.8-2.3,31.4-6.5l0,10.7L226.5,268z M147.1,185.2v-43.6h69.5
		c16.6,0,32-7.1,42.7-18.9c3.5,7.2,9.6,13,17,16.2c0.1,0,0.2,0.1,0.2,0.1v46.1c0,21.6-11,41.6-28.9,53.3
		C204.7,265.7,147.1,236.5,147.1,185.2L147.1,185.2z M170.3,281.7l27.9,27.9v14.3l-7.5,7.5c-1,1-2.6,1-3.6,0L146.7,291L170.3,281.7z
		 M34.8,374.8c0-28.9,20.5-47.9,34.3-53.6l62.2-24.3l45.1,45.1c5.9,5.9,14.9,6.7,21.7,2.5v108.3c0,4.1,1,8.5,2.9,12.4h-9.3
		c-6,0-11,4.9-11,11v12.1c0,3.1,0.6,6.1,1.7,8.8H98c0-12.7,0-92.8,0-111.7c0-4.1-3.4-7.5-7.5-7.5c-4.1,0-7.5,3.4-7.5,7.5v18.4H34.8
		L34.8,374.8z M34.8,418.8H83v18.7H34.8L34.8,418.8z M34.8,452.4H83V497H40.4c-3,0-5.5-2.5-5.5-5.5L34.8,452.4z"/>
	<path class="st0" d="M252.7,337.6c-4.4,2.2-7.2,6.7-7.2,11.6c0,4.9,2.7,9.4,7.2,11.6l17.3,8.7v41.1c0,6.9,3.7,13.3,9.8,16.5
		c32.5,17.5,71.8,17.5,104.2,0c2-1.1,3.7-2.4,5.1-4.1l-0.5,1.9c-2.6,9.8,4.8,19.4,14.9,19.4H418c10.1,0,17.5-9.6,14.9-19.4
		c0,0,0,0,0,0l-3.2-12.2c-1.6-5.9-5.9-10.6-11.4-12.8v-50.7c0-4.9-2.7-9.4-7.2-11.6l-70.3-35.2c-5.6-2.8-12.2-2.8-17.8,0
		L252.7,337.6z M410.8,413.5c2.4,0,4,1.3,4.4,3l3.2,12.2c0.1,0.3-0.1,0.5-0.4,0.5h-14.4c-0.3,0-0.5-0.3-0.4-0.5l3.2-12.2
		C406.8,414.8,408.3,413.5,410.8,413.5L410.8,413.5z M393.8,369.5l9.5-4.8v35.2c-4,1.6-7.3,4.4-9.5,8.1V369.5z M378.8,410.6
		c0,1.4-0.7,2.7-1.9,3.3c-28,15.1-62,15.1-90,0c-1.1-0.6-1.9-1.9-1.9-3.3V377l38,19c5.5,2.7,12.1,2.9,17.8,0l38-19L378.8,410.6z
		 M334.1,315.8l51.7,25.9h-53.9c-4.1,0-7.5,3.4-7.5,7.5s3.4,7.5,7.5,7.5h53.9c-5.2,2.6-45.9,23-51.7,25.9c-1.4,0.7-3,0.7-4.4,0
		L263,349.2l66.7-33.4C331.1,315.1,332.7,315.1,334.1,315.8L334.1,315.8z"/>
</g>
</svg>
